<svg width="40" height="40" viewBox="0 0 40 40" fill="none" xmlns="http://www.w3.org/2000/svg">
    <path d="M29.2816 2.33137C29.9279 1.68512 30.9729 1.68512 31.6123 2.33137L37.1123 7.83137C37.7585 8.47762 37.7585 9.52262 37.1123 10.162L31.6123 15.662C30.966 16.3082 29.921 16.3082 29.2816 15.662C28.6423 15.0157 28.6354 13.9707 29.2816 13.3314L31.9629 10.6501H26.4491C25.576 10.6501 24.7373 11.0007 24.1185 11.6195L15.731 20.0001L24.1185 28.3807C24.7373 28.9995 25.576 29.3501 26.4491 29.3501H31.9629L29.2816 26.6689C28.6354 26.0226 28.6354 24.9776 29.2816 24.3382C29.9279 23.6989 30.9729 23.692 31.6123 24.3382L37.1123 29.8382C37.7585 30.4845 37.7585 31.5295 37.1123 32.1689L31.6123 37.6689C30.966 38.3151 29.921 38.3151 29.2816 37.6689C28.6423 37.0226 28.6354 35.9776 29.2816 35.3382L31.9629 32.657H26.4491C24.696 32.657 23.0185 31.9626 21.781 30.7251L12.7198 21.6501H4.05039C3.13602 21.6501 2.40039 20.9145 2.40039 20.0001C2.40039 19.0857 3.13602 18.3501 4.05039 18.3501H12.7198L21.7879 9.28199C23.0254 8.04449 24.7029 7.35012 26.456 7.35012H31.9698L29.2885 4.66887C28.6423 4.02262 28.6423 2.97762 29.2885 2.33824L29.2816 2.33137Z"
          fill="currentColor"/>
</svg>
