<svg width="16" height="16" viewBox="0 0 16 16" fill="none" xmlns="http://www.w3.org/2000/svg">
<path d="M7.33996 4.05187L6.80096 3.82638C5.67621 3.35888 4.46896 3.11687 3.24796 3.11687H2.27996V12.7969H3.24796C4.64496 12.7969 6.03096 13.0444 7.33996 13.5229V4.05187ZM8.65996 13.5229C9.96896 13.0444 11.355 12.7969 12.752 12.7969H13.72V3.11687H12.752C11.531 3.11687 10.3237 3.35888 9.19896 3.82638L8.65996 4.05187V13.5229ZM7.30971 2.60812L7.99996 2.89688L8.69021 2.60812C9.97721 2.07188 11.3577 1.79688 12.752 1.79688H13.72C14.4487 1.79688 15.04 2.38813 15.04 3.11687V12.7969C15.04 13.5256 14.4487 14.1169 13.72 14.1169H12.752C11.3577 14.1169 9.97721 14.3919 8.69021 14.9281L8.33821 15.0739C8.12096 15.1646 7.87896 15.1646 7.66171 15.0739L7.30971 14.9281C6.02271 14.3919 4.64221 14.1169 3.24796 14.1169H2.27996C1.55121 14.1169 0.959961 13.5256 0.959961 12.7969V3.11687C0.959961 2.38813 1.55121 1.79688 2.27996 1.79688H3.24796C4.64221 1.79688 6.02271 2.07188 7.30971 2.60812Z" fill="black" fill-opacity="0.88"/>
</svg>
