<svg width="16" color="black" height="16" viewBox="0 0 16 16" fill="none" xmlns="http://www.w3.org/2000/svg">
    <path d="M4.26025 1.87402H5.57959C5.92635 1.87402 6.20557 2.15323 6.20557 2.5C6.20548 2.84669 5.9263 3.125 5.57959 3.125H4.26025C3.63355 3.125 3.12553 3.63307 3.12549 4.25977V5.51074C3.12549 6.14232 2.87356 6.74995 2.42627 7.19727L1.62354 8L2.42627 8.80273C2.87339 9.24996 3.12541 9.85689 3.12549 10.4883V11.7402C3.1257 12.3668 3.63365 12.874 4.26025 12.874H5.57959C5.92635 12.874 6.20557 13.1532 6.20557 13.5C6.20548 13.8467 5.9263 14.125 5.57959 14.125H4.26025C2.94287 14.125 1.87472 13.0576 1.87451 11.7402V10.4883C1.87443 10.1879 1.75501 9.89916 1.54248 9.68652L0.296387 8.44043C0.0516274 8.19827 0.0514393 7.8018 0.296387 7.55664L1.54248 6.31348C1.75518 6.10075 1.87451 5.81128 1.87451 5.51074V4.25977C1.87455 2.94229 2.94276 1.87402 4.26025 1.87402ZM10.4204 1.87402H11.7397C13.0572 1.87402 14.1254 2.94229 14.1255 4.25977V5.51074C14.1255 5.81129 14.2448 6.10075 14.4575 6.31348L15.7036 7.55957C15.9483 7.80179 15.9486 8.19826 15.7036 8.44336L14.4575 9.68555V9.68652C14.245 9.89916 14.1256 10.1879 14.1255 10.4883V11.7402C14.1253 13.0576 13.0571 14.125 11.7397 14.125H10.4204C10.0737 14.125 9.79452 13.8467 9.79443 13.5C9.79443 13.1532 10.0736 12.874 10.4204 12.874H11.7397C12.3664 12.874 12.8743 12.3668 12.8745 11.7402V10.4883C12.8746 9.85688 13.1266 9.24997 13.5737 8.80273L14.3765 8L13.5737 7.19727C13.1264 6.74995 12.8745 6.14233 12.8745 5.51074V4.25977C12.8745 3.63307 12.3665 3.125 11.7397 3.125H10.4204C10.0737 3.125 9.79452 2.84669 9.79443 2.5C9.79443 2.15323 10.0736 1.87402 10.4204 1.87402Z"
          fill="currentColor" stroke="currentColor" stroke-width="0.06875"/>
</svg>
