<svg width="8" height="9" viewBox="0 0 8 9" fill="none" xmlns="http://www.w3.org/2000/svg">
<path d="M3.62131 2.49271C2.73802 2.68419 2.10179 3.38527 2.01223 4.26548C1.97208 4.6361 2.03385 5.04995 2.18209 5.39586C2.2593 5.57808 2.3674 5.75103 2.61448 6.08459C2.72875 6.23592 2.85229 6.40887 2.88935 6.47064C2.96347 6.59418 3.04995 6.81655 3.06848 6.93391L3.08083 7.01112H4.00428H4.92464L4.94626 6.89994C4.99259 6.66213 5.08216 6.49535 5.36629 6.11856C5.76779 5.58426 5.89133 5.331 5.96854 4.90171C6.00869 4.67007 6.01178 4.29637 5.97163 4.09253C5.82339 3.32659 5.24893 2.71508 4.48917 2.51742C4.24827 2.45256 3.85295 2.44021 3.62131 2.49271Z" fill="white"/>
<path d="M3.10237 7.88425L3.10855 8.4062L3.16105 8.48033C3.19193 8.52665 3.24444 8.56989 3.30003 8.60078L3.3896 8.64402H4.0042H4.6188L4.70837 8.60078C4.76396 8.57298 4.81646 8.52665 4.84735 8.48033L4.89985 8.4062L4.90603 7.88425L4.91221 7.3623H4.0042H3.09619L3.10237 7.88425Z" fill="white"/>
<path d="M4.00024 0.959961V1.95996" stroke="white"/>
<path d="M7.00024 2.70996L6.13422 3.20996" stroke="white"/>
<path d="M1.00024 2.70996L1.86627 3.20996" stroke="white"/>
<path d="M0.646729 5.82715L1.35384 5.12004" stroke="white"/>
<path d="M6.63403 5.22363L7.50006 5.72363" stroke="white"/>
</svg>
