<svg width="240" height="38" viewBox="0 0 240 38" fill="none" xmlns="http://www.w3.org/2000/svg">
<path d="M48.4702 12.3947C48.3444 12.6149 48.2081 12.7774 48.0613 12.8822C47.925 12.9766 47.752 13.0238 47.5423 13.0238C47.3221 13.0238 47.0809 12.9451 46.8188 12.7879C46.5672 12.6201 46.2631 12.4366 45.9066 12.2374C45.5502 12.0382 45.1308 11.86 44.6485 11.7027C44.1766 11.5349 43.6157 11.451 42.9657 11.451C42.3785 11.451 41.8647 11.5244 41.4244 11.6712C40.984 11.8075 40.6118 12.0015 40.3077 12.2531C40.0142 12.5048 39.794 12.8088 39.6472 13.1653C39.5004 13.5113 39.427 13.894 39.427 14.3134C39.427 14.8481 39.5738 15.2937 39.8674 15.6502C40.1714 16.0067 40.5699 16.3108 41.0627 16.5624C41.5554 16.814 42.1164 17.0395 42.7455 17.2387C43.3746 17.4379 44.0194 17.6528 44.6799 17.8835C45.3405 18.1037 45.9853 18.3658 46.6144 18.6698C47.2435 18.9634 47.8044 19.3409 48.2972 19.8022C48.79 20.2531 49.1832 20.8088 49.4767 21.4693C49.7808 22.1298 49.9328 22.9319 49.9328 23.8756C49.9328 24.9031 49.7546 25.8677 49.3981 26.7694C49.0521 27.6606 48.5383 28.4417 47.8568 29.1127C47.1858 29.7733 46.3627 30.2975 45.3876 30.6855C44.4126 31.0629 43.2959 31.2516 42.0377 31.2516C41.3143 31.2516 40.6013 31.1782 39.8988 31.0315C39.1964 30.8952 38.5201 30.6959 37.87 30.4338C37.2305 30.1717 36.6276 29.8572 36.0614 29.4902C35.4952 29.1232 34.9919 28.7143 34.5516 28.2635L35.794 26.2346C35.8989 26.0879 36.0352 25.9673 36.2029 25.8729C36.3707 25.7681 36.5489 25.7156 36.7377 25.7156C36.9998 25.7156 37.2829 25.8257 37.5869 26.0459C37.891 26.2556 38.2527 26.4915 38.6721 26.7536C39.0915 27.0158 39.5791 27.2569 40.1347 27.4771C40.7009 27.6868 41.3772 27.7916 42.1636 27.7916C43.3693 27.7916 44.3025 27.5086 44.963 26.9424C45.6236 26.3657 45.9538 25.5426 45.9538 24.4732C45.9538 23.8756 45.8018 23.388 45.4977 23.0106C45.2042 22.6331 44.811 22.3186 44.3182 22.0669C43.8254 21.8048 43.2645 21.5846 42.6354 21.4064C42.0063 21.2281 41.3667 21.0342 40.7167 20.8245C40.0666 20.6148 39.427 20.3631 38.7979 20.0696C38.1688 19.776 37.6079 19.3933 37.1151 18.9215C36.6223 18.4497 36.2239 17.8625 35.9198 17.16C35.6263 16.4471 35.4795 15.5716 35.4795 14.5336C35.4795 13.7053 35.642 12.8979 35.967 12.1116C36.3025 11.3252 36.7848 10.628 37.4139 10.0199C38.043 9.41174 38.8189 8.9242 39.7416 8.55723C40.6642 8.19026 41.7232 8.00678 42.9185 8.00678C44.2605 8.00678 45.4977 8.21648 46.6301 8.63587C47.7625 9.05526 48.7271 9.64241 49.5239 10.3973L48.4702 12.3947ZM64.508 18.2767C64.3927 18.4235 64.2774 18.5388 64.162 18.6227C64.0572 18.7065 63.8999 18.7485 63.6902 18.7485C63.491 18.7485 63.297 18.6908 63.1083 18.5755C62.9196 18.4497 62.6942 18.3134 62.432 18.1666C62.1699 18.0093 61.8554 17.873 61.4884 17.7577C61.1319 17.6318 60.6863 17.5689 60.1516 17.5689C59.4701 17.5689 58.8724 17.6948 58.3587 17.9464C57.8449 18.1875 57.415 18.5388 57.069 19.0001C56.7335 19.4615 56.4819 20.0224 56.3141 20.6829C56.1464 21.333 56.0625 22.0722 56.0625 22.9005C56.0625 23.7602 56.1516 24.5256 56.3299 25.1966C56.5186 25.8677 56.786 26.4339 57.132 26.8952C57.478 27.346 57.8974 27.692 58.3901 27.9332C58.8829 28.1639 59.4386 28.2792 60.0572 28.2792C60.6758 28.2792 61.1739 28.2058 61.5513 28.059C61.9393 27.9017 62.2643 27.734 62.5264 27.5557C62.7885 27.367 63.0139 27.1993 63.2027 27.0525C63.4019 26.8952 63.6221 26.8166 63.8632 26.8166C64.1778 26.8166 64.4137 26.9371 64.5709 27.1783L65.6876 28.5937C65.2577 29.097 64.7911 29.5216 64.2879 29.8676C63.7846 30.2032 63.2603 30.4758 62.7151 30.6855C62.1804 30.8847 61.6247 31.0262 61.048 31.1101C60.4819 31.194 59.9157 31.2359 59.3495 31.2359C58.3534 31.2359 57.415 31.0524 56.5343 30.6855C55.6536 30.308 54.883 29.7628 54.2224 29.0498C53.5619 28.3369 53.0376 27.4666 52.6497 26.4391C52.2722 25.4011 52.0835 24.2216 52.0835 22.9005C52.0835 21.7157 52.2513 20.62 52.5868 19.6135C52.9328 18.5965 53.4361 17.721 54.0966 16.987C54.7571 16.2426 55.575 15.6607 56.5501 15.2413C57.5251 14.8219 58.647 14.6122 59.9157 14.6122C61.1214 14.6122 62.1752 14.8062 63.0769 15.1941C63.989 15.5821 64.8069 16.1378 65.5303 16.8612L64.508 18.2767ZM71.7873 17.6633C72.2906 16.6987 72.8882 15.9438 73.5802 15.3986C74.2722 14.8429 75.09 14.565 76.0336 14.565C76.7781 14.565 77.3757 14.7276 77.8265 15.0526L77.5749 17.9621C77.5225 18.1508 77.4438 18.2871 77.339 18.371C77.2446 18.4444 77.1136 18.4811 76.9458 18.4811C76.7885 18.4811 76.5526 18.4549 76.2381 18.4025C75.934 18.3501 75.6352 18.3238 75.3416 18.3238C74.9118 18.3238 74.5291 18.3868 74.1936 18.5126C73.858 18.6384 73.554 18.8219 73.2814 19.063C73.0193 19.2937 72.7833 19.5768 72.5736 19.9123C72.3744 20.2478 72.1857 20.6305 72.0075 21.0604V31H68.1228V14.8639H70.4033C70.8017 14.8639 71.0796 14.9372 71.2368 15.084C71.3941 15.2203 71.499 15.472 71.5514 15.8389L71.7873 17.6633ZM89.7918 21.0761C89.7918 20.5728 89.7184 20.101 89.5716 19.6607C89.4353 19.2098 89.2256 18.8166 88.9425 18.4811C88.6594 18.1456 88.2977 17.8835 87.8573 17.6948C87.4275 17.4955 86.9242 17.3959 86.3475 17.3959C85.2256 17.3959 84.3397 17.7157 83.6896 18.3553C83.05 18.9949 82.6411 19.9018 82.4629 21.0761H89.7918ZM82.3843 23.4195C82.4472 24.2478 82.5939 24.966 82.8246 25.5741C83.0553 26.1717 83.3593 26.6698 83.7368 27.0682C84.1142 27.4561 84.5599 27.7497 85.0736 27.9489C85.5978 28.1376 86.1745 28.232 86.8036 28.232C87.4327 28.232 87.9727 28.1586 88.4235 28.0118C88.8848 27.865 89.2833 27.7025 89.6188 27.5243C89.9648 27.346 90.2636 27.1835 90.5152 27.0367C90.7774 26.8899 91.029 26.8166 91.2701 26.8166C91.5952 26.8166 91.8363 26.9371 91.9936 27.1783L93.1102 28.5937C92.6803 29.097 92.198 29.5216 91.6633 29.8676C91.1286 30.2032 90.5677 30.4758 89.9805 30.6855C89.4038 30.8847 88.8114 31.0262 88.2033 31.1101C87.6057 31.194 87.0238 31.2359 86.4576 31.2359C85.3357 31.2359 84.2925 31.0524 83.3279 30.6855C82.3633 30.308 81.5245 29.7575 80.8115 29.0341C80.0986 28.3002 79.5376 27.3985 79.1287 26.329C78.7198 25.2491 78.5153 24.0014 78.5153 22.5859C78.5153 21.485 78.6936 20.4523 79.0501 19.4877C79.4066 18.5126 79.9151 17.6685 80.5756 16.9556C81.2466 16.2321 82.0592 15.6607 83.0133 15.2413C83.9779 14.8219 85.0631 14.6122 86.2689 14.6122C87.2859 14.6122 88.2243 14.7747 89.0841 15.0998C89.9438 15.4248 90.683 15.9019 91.3016 16.5309C91.9202 17.1495 92.4025 17.9149 92.7485 18.8271C93.105 19.7288 93.2832 20.7616 93.2832 21.9254C93.2832 22.5125 93.2203 22.911 93.0945 23.1207C92.9687 23.3199 92.7275 23.4195 92.371 23.4195H82.3843ZM106.594 21.0761C106.594 20.5728 106.521 20.101 106.374 19.6607C106.238 19.2098 106.028 18.8166 105.745 18.4811C105.462 18.1456 105.1 17.8835 104.66 17.6948C104.23 17.4955 103.727 17.3959 103.15 17.3959C102.028 17.3959 101.142 17.7157 100.492 18.3553C99.8524 18.9949 99.4435 19.9018 99.2652 21.0761H106.594ZM99.1866 23.4195C99.2495 24.2478 99.3963 24.966 99.627 25.5741C99.8576 26.1717 100.162 26.6698 100.539 27.0682C100.917 27.4561 101.362 27.7497 101.876 27.9489C102.4 28.1376 102.977 28.232 103.606 28.232C104.235 28.232 104.775 28.1586 105.226 28.0118C105.687 27.865 106.086 27.7025 106.421 27.5243C106.767 27.346 107.066 27.1835 107.318 27.0367C107.58 26.8899 107.831 26.8166 108.072 26.8166C108.398 26.8166 108.639 26.9371 108.796 27.1783L109.913 28.5937C109.483 29.097 109 29.5216 108.466 29.8676C107.931 30.2032 107.37 30.4758 106.783 30.6855C106.206 30.8847 105.614 31.0262 105.006 31.1101C104.408 31.194 103.826 31.2359 103.26 31.2359C102.138 31.2359 101.095 31.0524 100.13 30.6855C99.1656 30.308 98.3268 29.7575 97.6139 29.0341C96.9009 28.3002 96.34 27.3985 95.9311 26.329C95.5221 25.2491 95.3177 24.0014 95.3177 22.5859C95.3177 21.485 95.4959 20.4523 95.8524 19.4877C96.2089 18.5126 96.7174 17.6685 97.378 16.9556C98.049 16.2321 98.8616 15.6607 99.8157 15.2413C100.78 14.8219 101.865 14.6122 103.071 14.6122C104.088 14.6122 105.027 14.7747 105.886 15.0998C106.746 15.4248 107.485 15.9019 108.104 16.5309C108.723 17.1495 109.205 17.9149 109.551 18.8271C109.907 19.7288 110.086 20.7616 110.086 21.9254C110.086 22.5125 110.023 22.911 109.897 23.1207C109.771 23.3199 109.53 23.4195 109.173 23.4195H99.1866ZM116.634 16.8455C116.959 16.5205 117.3 16.2216 117.656 15.949C118.023 15.6659 118.406 15.43 118.804 15.2413C119.213 15.0421 119.648 14.8901 120.109 14.7852C120.571 14.6699 121.074 14.6122 121.619 14.6122C122.5 14.6122 123.281 14.7642 123.963 15.0683C124.644 15.3619 125.21 15.7813 125.661 16.3265C126.123 16.8612 126.469 17.506 126.699 18.2609C126.94 19.0054 127.061 19.8284 127.061 20.7301V31H123.176V20.7301C123.176 19.7445 122.951 18.9844 122.5 18.4497C122.049 17.9045 121.362 17.6318 120.44 17.6318C119.769 17.6318 119.14 17.7839 118.552 18.0879C117.965 18.392 117.41 18.8061 116.885 19.3304V31H113.001V14.8639H115.376C115.879 14.8639 116.209 15.0998 116.366 15.5716L116.634 16.8455ZM155.691 8.25841V31H151.964V16.3108C151.964 15.7236 151.995 15.0893 152.058 14.4078L145.185 27.3198C144.86 27.9384 144.362 28.2477 143.691 28.2477H143.094C142.423 28.2477 141.925 27.9384 141.6 27.3198L134.648 14.3606C134.68 14.7066 134.706 15.0473 134.727 15.3829C134.748 15.7184 134.758 16.0277 134.758 16.3108V31H131.031V8.25841H134.223C134.412 8.25841 134.575 8.26366 134.711 8.27414C134.847 8.28463 134.968 8.31084 135.073 8.35278C135.188 8.39472 135.288 8.46287 135.372 8.55723C135.466 8.6516 135.555 8.77741 135.639 8.93469L142.449 21.5637C142.627 21.8992 142.79 22.2452 142.936 22.6017C143.094 22.9581 143.246 23.3251 143.392 23.7026C143.539 23.3146 143.691 22.9424 143.849 22.5859C144.006 22.219 144.174 21.8677 144.352 21.5322L151.067 8.93469C151.151 8.77741 151.24 8.6516 151.335 8.55723C151.429 8.46287 151.529 8.39472 151.633 8.35278C151.749 8.31084 151.875 8.28463 152.011 8.27414C152.147 8.26366 152.31 8.25841 152.498 8.25841H155.691ZM168.277 24.1115C167.155 24.1639 166.211 24.2635 165.446 24.4103C164.68 24.5466 164.067 24.7248 163.606 24.945C163.144 25.1652 162.814 25.4221 162.615 25.7156C162.416 26.0092 162.316 26.329 162.316 26.675C162.316 27.3565 162.515 27.8441 162.914 28.1376C163.323 28.4312 163.852 28.578 164.502 28.578C165.299 28.578 165.986 28.4365 166.562 28.1534C167.149 27.8598 167.721 27.4194 168.277 26.8323V24.1115ZM159.375 17.1128C161.231 15.4143 163.464 14.565 166.075 14.565C167.018 14.565 167.862 14.7223 168.607 15.0369C169.351 15.3409 169.98 15.7708 170.494 16.3265C171.008 16.8717 171.396 17.527 171.658 18.2924C171.931 19.0578 172.067 19.8966 172.067 20.8088V31H170.305C169.938 31 169.655 30.9476 169.456 30.8427C169.257 30.7274 169.1 30.502 168.984 30.1665L168.638 29.0026C168.229 29.3696 167.831 29.6946 167.443 29.9777C167.055 30.2503 166.651 30.481 166.232 30.6697C165.813 30.8585 165.362 31 164.88 31.0944C164.408 31.1992 163.883 31.2516 163.307 31.2516C162.625 31.2516 161.996 31.1625 161.42 30.9843C160.843 30.7955 160.345 30.5177 159.925 30.1507C159.506 29.7838 159.181 29.3277 158.95 28.7825C158.72 28.2372 158.604 27.6029 158.604 26.8795C158.604 26.4706 158.672 26.0669 158.809 25.6685C158.945 25.2596 159.165 24.8716 159.469 24.5047C159.784 24.1377 160.188 23.7917 160.68 23.4667C161.173 23.1416 161.776 22.8585 162.489 22.6174C163.212 22.3762 164.051 22.1823 165.005 22.0355C165.959 21.8782 167.05 21.7838 168.277 21.7524V20.8088C168.277 19.7288 168.046 18.932 167.585 18.4182C167.123 17.894 166.457 17.6318 165.587 17.6318C164.958 17.6318 164.434 17.7052 164.015 17.852C163.606 17.9988 163.244 18.1666 162.929 18.3553C162.615 18.5335 162.326 18.6961 162.064 18.8428C161.813 18.9896 161.53 19.063 161.215 19.063C160.942 19.063 160.712 18.9949 160.523 18.8586C160.334 18.7118 160.182 18.544 160.067 18.3553L159.375 17.1128ZM180.889 31.2516C179.484 31.2516 178.404 30.8585 177.649 30.0721C176.905 29.2752 176.533 28.1796 176.533 26.7851V17.7734H174.881C174.672 17.7734 174.493 17.7052 174.347 17.5689C174.2 17.4326 174.126 17.2282 174.126 16.9556V15.4143L176.721 14.9897L177.539 10.586C177.592 10.3763 177.691 10.2138 177.838 10.0985C177.985 9.98317 178.174 9.9255 178.404 9.9255H180.417V15.0054H184.727V17.7734H180.417V26.5177C180.417 27.021 180.538 27.4142 180.779 27.6973C181.031 27.9804 181.371 28.1219 181.801 28.1219C182.042 28.1219 182.242 28.0957 182.399 28.0433C182.567 27.9804 182.708 27.9175 182.824 27.8546C182.949 27.7916 183.059 27.734 183.154 27.6816C183.248 27.6186 183.343 27.5872 183.437 27.5872C183.552 27.5872 183.647 27.6186 183.72 27.6816C183.793 27.734 183.872 27.8179 183.956 27.9332L185.12 29.8205C184.554 30.2923 183.903 30.6488 183.17 30.8899C182.436 31.1311 181.675 31.2516 180.889 31.2516ZM197.486 21.0761C197.486 20.5728 197.413 20.101 197.266 19.6607C197.13 19.2098 196.92 18.8166 196.637 18.4811C196.354 18.1456 195.992 17.8835 195.552 17.6948C195.122 17.4955 194.619 17.3959 194.042 17.3959C192.92 17.3959 192.034 17.7157 191.384 18.3553C190.745 18.9949 190.336 19.9018 190.158 21.0761H197.486ZM190.079 23.4195C190.142 24.2478 190.289 24.966 190.519 25.5741C190.75 26.1717 191.054 26.6698 191.431 27.0682C191.809 27.4561 192.255 27.7497 192.768 27.9489C193.293 28.1376 193.869 28.232 194.498 28.232C195.127 28.232 195.667 28.1586 196.118 28.0118C196.58 27.865 196.978 27.7025 197.313 27.5243C197.659 27.346 197.958 27.1835 198.21 27.0367C198.472 26.8899 198.724 26.8166 198.965 26.8166C199.29 26.8166 199.531 26.9371 199.688 27.1783L200.805 28.5937C200.375 29.097 199.893 29.5216 199.358 29.8676C198.823 30.2032 198.262 30.4758 197.675 30.6855C197.099 30.8847 196.506 31.0262 195.898 31.1101C195.3 31.194 194.718 31.2359 194.152 31.2359C193.03 31.2359 191.987 31.0524 191.023 30.6855C190.058 30.308 189.219 29.7575 188.506 29.0341C187.793 28.3002 187.232 27.3985 186.823 26.329C186.415 25.2491 186.21 24.0014 186.21 22.5859C186.21 21.485 186.388 20.4523 186.745 19.4877C187.101 18.5126 187.61 17.6685 188.27 16.9556C188.941 16.2321 189.754 15.6607 190.708 15.2413C191.673 14.8219 192.758 14.6122 193.964 14.6122C194.981 14.6122 195.919 14.7747 196.779 15.0998C197.639 15.4248 198.378 15.9019 198.996 16.5309C199.615 17.1495 200.097 17.9149 200.443 18.8271C200.8 19.7288 200.978 20.7616 200.978 21.9254C200.978 22.5125 200.915 22.911 200.789 23.1207C200.663 23.3199 200.422 23.4195 200.066 23.4195H190.079ZM223.126 22.4129L220.358 14.8481C220.222 14.5126 220.08 14.1142 219.934 13.6529C219.787 13.1915 219.64 12.6935 219.493 12.1588C219.357 12.6935 219.215 13.1968 219.069 13.6686C218.922 14.1299 218.78 14.5336 218.644 14.8796L215.892 22.4129H223.126ZM230.597 31H227.325C226.959 31 226.66 30.9109 226.429 30.7326C226.198 30.5439 226.025 30.3132 225.91 30.0406L224.211 25.4011H214.791L213.092 30.0406C213.008 30.2818 212.846 30.502 212.605 30.7012C212.364 30.9004 212.065 31 211.708 31H208.406L217.354 8.25841H221.664L230.597 31ZM237.197 31H232.951V8.25841H237.197V31Z" fill="black" fill-opacity="0.88"/>
<path fill-rule="evenodd" clip-rule="evenodd" d="M0.171875 25.3204V32.8696H7.72093V25.3204H0.171875ZM0.171875 17.6141H7.72093H7.87822H15.4273V25.1633V25.3204V32.7257C19.9653 32.0412 24.4912 29.0536 26.7509 24.5341C29.11 19.816 29.4245 14.3114 26.7509 9.43598C23.4817 3.88586 19.0446 1.41508 14.4837 1.25781H0.171875V17.6141Z" fill="black" fill-opacity="0.88"/>
</svg>
