<svg width="14" height="14" viewBox="0 0 14 14" fill="none" xmlns="http://www.w3.org/2000/svg">
<path d="M2.55929 3.36817C2.3331 3.14198 2.3331 2.77623 2.55929 2.55245C2.78548 2.32867 3.15123 2.32627 3.37501 2.55245L7.00845 6.18589L10.6419 2.55245C10.8681 2.32627 11.2338 2.32627 11.4576 2.55245C11.6814 2.77864 11.6838 3.14439 11.4576 3.36817L7.82416 7.00161L11.4576 10.635C11.6838 10.8612 11.6838 11.227 11.4576 11.4508C11.2314 11.6745 10.8657 11.677 10.6419 11.4508L7.00845 7.81733L3.37501 11.4508C3.14882 11.677 2.78307 11.677 2.55929 11.4508C2.33551 11.2246 2.3331 10.8588 2.55929 10.635L6.19273 7.00161L2.55929 3.36817Z" fill="white"/>
</svg>
