<svg width="161" height="81" viewBox="0 0 161 81" fill="none" xmlns="http://www.w3.org/2000/svg">
<g opacity="0.2">
<mask id="path-1-inside-1_1972_27618" fill="white">
<rect x="39.5" y="0.5" width="82.2065" height="54.0687" rx="1.10344"/>
</mask>
<rect x="39.5" y="0.5" width="82.2065" height="54.0687" rx="1.10344" stroke="#606264" stroke-width="12" mask="url(#path-1-inside-1_1972_27618)"/>
<path d="M85.2932 58.0177C85.2932 58.6271 85.7872 59.1211 86.3967 59.1211H94.1204C94.7298 59.1211 95.2239 59.6151 95.2239 60.2245V63.5352C95.2239 64.1446 94.7298 64.6387 94.1204 64.6387H67.0861C66.4767 64.6387 65.9827 64.1446 65.9827 63.5352V60.2245C65.9827 59.6151 66.4767 59.1211 67.0861 59.1211H75.3616C75.9711 59.1211 76.4651 58.6271 76.4651 58.0177V53.6034C76.4651 52.994 76.9591 52.5 77.5685 52.5H84.1898C84.7992 52.5 85.2932 52.994 85.2932 53.6034V58.0177Z" fill="#606264"/>
<circle cx="117.478" cy="36.5" r="19" fill="white" stroke="#606264" stroke-width="6" stroke-linejoin="bevel"/>
<path d="M148.5 72.25C138 60.176 110.7 43.2724 85.5 72.25" stroke="#606264" stroke-width="6" stroke-linecap="round" stroke-linejoin="bevel"/>
</g>
</svg>
