<svg width="16" height="16" viewBox="0 0 16 16" fill="none" xmlns="http://www.w3.org/2000/svg">
<rect x="0.5" y="0.5" width="15" height="15" rx="7.5" fill="#1677FF"/>
<rect x="0.5" y="0.5" width="15" height="15" rx="7.5" stroke="white"/>
<path d="M7.49492 4.82784C6.31719 5.08316 5.46889 6.01793 5.34947 7.19154C5.29594 7.6857 5.3783 8.2375 5.57596 8.69871C5.67891 8.94167 5.82304 9.17228 6.15247 9.61701C6.30484 9.81879 6.46955 10.0494 6.51897 10.1318C6.6178 10.2965 6.7331 10.593 6.75781 10.7494L6.77428 10.8524H8.00555H9.2327L9.26152 10.7042C9.32329 10.3871 9.44271 10.1647 9.82156 9.66231C10.3569 8.94991 10.5216 8.61224 10.6246 8.03984C10.6781 7.731 10.6822 7.23272 10.6287 6.96094C10.431 5.93969 9.66508 5.12434 8.65207 4.86079C8.33087 4.77431 7.80377 4.75784 7.49492 4.82784Z" fill="white"/>
<path d="M6.80291 12.0162L6.81115 12.7122L6.88115 12.811C6.92233 12.8728 6.99234 12.9304 7.06646 12.9716L7.18588 13.0293H8.00535H8.82482L8.94425 12.9716C9.01837 12.9345 9.08837 12.8728 9.12955 12.811L9.19956 12.7122L9.20779 12.0162L9.21603 11.3203H8.00535H6.79468L6.80291 12.0162Z" fill="white"/>
<path fill-rule="evenodd" clip-rule="evenodd" d="M7.33325 3.9707V2.9707H8.66659V3.9707H7.33325Z" fill="white"/>
<path fill-rule="evenodd" clip-rule="evenodd" d="M10.8007 5.04004L11.6667 4.54004L12.3334 5.69474L11.4674 6.19474L10.8007 5.04004Z" fill="white"/>
<path fill-rule="evenodd" clip-rule="evenodd" d="M5.19952 5.04004L4.3335 4.54004L3.66683 5.69474L4.53285 6.19474L5.19952 5.04004Z" fill="white"/>
<path fill-rule="evenodd" clip-rule="evenodd" d="M4.06842 7.87305L3.20239 8.37305L3.86906 9.52775L4.73508 9.02775L4.06842 7.87305Z" fill="white"/>
<path fill-rule="evenodd" clip-rule="evenodd" d="M12.7977 8.37109L11.9316 7.87109L11.265 9.02579L12.131 9.52579L12.7977 8.37109Z" fill="white"/>
</svg>
