<svg width="16" height="16" viewBox="0 0 16 16" fill="none" xmlns="http://www.w3.org/2000/svg">
<rect x="0.5" y="0.5" width="15" height="15" rx="7.5" fill="#FFFBE6"/>
<rect x="0.5" y="0.5" width="15" height="15" rx="7.5" stroke="#FAAD14"/>
<path d="M7.49492 4.65695C6.31719 4.91226 5.46889 5.84703 5.34947 7.02065C5.29594 7.5148 5.3783 8.0666 5.57596 8.52781C5.67891 8.77077 5.82304 9.00138 6.15247 9.44612C6.30484 9.6479 6.46955 9.8785 6.51897 9.96086C6.6178 10.1256 6.7331 10.4221 6.75781 10.5786L6.77428 10.6815H8.00555H9.2327L9.26152 10.5333C9.32329 10.2162 9.44271 9.9938 9.82156 9.49141C10.3569 8.77901 10.5216 8.44134 10.6246 7.86894C10.6781 7.5601 10.6822 7.06183 10.6287 6.79004C10.431 5.76879 9.66508 4.95344 8.65207 4.68989C8.33087 4.60341 7.80377 4.58694 7.49492 4.65695Z" fill="#FAAD14"/>
<path d="M6.80291 11.8453L6.81115 12.5413L6.88115 12.6401C6.92233 12.7019 6.99234 12.7595 7.06646 12.8007L7.18588 12.8584H8.00535H8.82482L8.94425 12.8007C9.01837 12.7636 9.08837 12.7019 9.12955 12.6401L9.19956 12.5413L9.20779 11.8453L9.21603 11.1494H8.00535H6.79468L6.80291 11.8453Z" fill="#FAAD14"/>
<path fill-rule="evenodd" clip-rule="evenodd" d="M7.33325 4V3H8.66659V4H7.33325Z" fill="#FAAD14"/>
<path fill-rule="evenodd" clip-rule="evenodd" d="M10.8007 4.86914L11.6667 4.36914L12.3334 5.52384L11.4674 6.02384L10.8007 4.86914Z" fill="#FAAD14"/>
<path fill-rule="evenodd" clip-rule="evenodd" d="M5.19952 4.86914L4.3335 4.36914L3.66683 5.52384L4.53285 6.02384L5.19952 4.86914Z" fill="#FAAD14"/>
<path fill-rule="evenodd" clip-rule="evenodd" d="M4.06842 7.70215L3.20239 8.20215L3.86906 9.35685L4.73508 8.85685L4.06842 7.70215Z" fill="#FAAD14"/>
<path fill-rule="evenodd" clip-rule="evenodd" d="M12.7977 8.2002L11.9316 7.7002L11.265 8.8549L12.131 9.3549L12.7977 8.2002Z" fill="#FAAD14"/>
</svg>
